HIERARCHY
ROOT root
{
	OFFSET	0	13.1	24.9
	CHANNELS 6  Xposition Yposition Zposition Xrotation Yrotation Zrotation
	JOINT spine_1
	{
		OFFSET	0	9.99999	0
		CHANNELS 3  Xrotation Yrotation Zrotation
		JOINT spine_2
		{
			OFFSET	0	112	-10
			CHANNELS 3  Xrotation Yrotation Zrotation
			JOINT spine_3
			{
				OFFSET	0	206.5	19.3
				CHANNELS 3  Xrotation Yrotation Zrotation
				JOINT spine_4
				{
					OFFSET	0	110.4	14.6
					CHANNELS 3  Xrotation Yrotation Zrotation
					JOINT neck_1
					{
						OFFSET	0	71.8	-50.3
						CHANNELS 3  Xrotation Yrotation Zrotation
						JOINT neck_2
						{
							OFFSET	0	86.2	-25.8
							CHANNELS 3  Xrotation Yrotation Zrotation
							JOINT head_ee
							{
								OFFSET	0	179.8	-8.7
								CHANNELS 3  Xrotation Yrotation Zrotation
								End Site
								{
									OFFSET	1	0	0
								}
							}
						}
					}
					JOINT left_clavicle
					{
						OFFSET	-43.2	22.4	-70.8
						CHANNELS 3  Xrotation Yrotation Zrotation
						JOINT left_shoulder
						{
							OFFSET	-93.9	-5.79999	48.7
							CHANNELS 3  Xrotation Yrotation Zrotation
							JOINT left_elbow
							{
								OFFSET	-291.4	-30.8	15.2
								CHANNELS 3  Xrotation Yrotation Zrotation
								JOINT left_lowarm_twist
								{
									OFFSET	-110.7	-3.89999	13.6
									CHANNELS 3  Xrotation Yrotation Zrotation
									JOINT left_hand
									{
										OFFSET	-110.7	-3.89999	13.6
										CHANNELS 3  Xrotation Yrotation Zrotation
										JOINT left_ee
										{
											OFFSET	-80.8	-5.10001	12.1
											CHANNELS 3  Xrotation Yrotation Zrotation
											End Site
											{
												OFFSET	1	0	0
											}
										}
									}
								}
							}
						}
					}
					JOINT right_clavicle
					{
						OFFSET	43.2	22.4	-70.8
						CHANNELS 3  Xrotation Yrotation Zrotation
						JOINT right_shoulder
						{
							OFFSET	93.9	-5.79999	48.7
							CHANNELS 3  Xrotation Yrotation Zrotation
							JOINT right_elbow
							{
								OFFSET	291.4	-30.8	15.2
								CHANNELS 3  Xrotation Yrotation Zrotation
								JOINT right_lowarm_twist
								{
									OFFSET	110.7	-3.89999	13.6
									CHANNELS 3  Xrotation Yrotation Zrotation
									JOINT right_hand
									{
										OFFSET	110.7	-3.89999	13.6
										CHANNELS 3  Xrotation Yrotation Zrotation
										JOINT right_ee
										{
											OFFSET	80.8	-5.10001	12.1
											CHANNELS 3  Xrotation Yrotation Zrotation
											End Site
											{
												OFFSET	1	0	0
											}
										}
									}
								}
							}
						}
					}
				}
			}
		}
	}
	JOINT left_hip
	{
		OFFSET	-82.8	-127.5	0.300001
		CHANNELS 3  Xrotation Yrotation Zrotation
		JOINT left_knee
		{
			OFFSET	-28.2	-396.7	2.2
			CHANNELS 3  Xrotation Yrotation Zrotation
			JOINT left_ankle
			{
				OFFSET	-11.7	-411.3	35.4
				CHANNELS 3  Xrotation Yrotation Zrotation
				JOINT left_toes
				{
					OFFSET	0	-60	-88.6
					CHANNELS 3  Xrotation Yrotation Zrotation
					JOINT left_foot_ee
					{
						OFFSET	-22.5	-16.5	-42.2
						CHANNELS 3  Xrotation Yrotation Zrotation
						End Site
						{
							OFFSET	1	0	0
						}
					}
				}
			}
		}
	}
	JOINT right_hip
	{
		OFFSET	82.8	-127.5	0.300001
		CHANNELS 3  Xrotation Yrotation Zrotation
		JOINT right_knee
		{
			OFFSET	28.2	-396.7	2.2
			CHANNELS 3  Xrotation Yrotation Zrotation
			JOINT right_ankle
			{
				OFFSET	11.7	-411.3	35.4
				CHANNELS 3  Xrotation Yrotation Zrotation
				JOINT right_toes
				{
					OFFSET	0	-60	-88.6
					CHANNELS 3  Xrotation Yrotation Zrotation
					JOINT right_foot_ee
					{
						OFFSET	22.5	-16.5	-42.2
						CHANNELS 3  Xrotation Yrotation Zrotation
						End Site
						{
							OFFSET	1	0	0
						}
					}
				}
			}
		}
	}
}
MOTION
Frames: 9
Frame Time: 0.02
2824.96452309 723.268 -1640.75169462 19.7509825552 63.4563857723 -24.5998618254 -2.53312 1.09861 6.84616 -2.50732 0.661813 6.90183 -2.39621 -1.09439 6.84683 -2.46156 -0.00202422 6.93333 -10.6623 16.4464 -10.9878 -10.9082 38.2339 -6.22125 -0.0 0.0 -0.0 -6.04387 8.25827 -9.83529 18.128 -19.9358 57.2273 1.22775 -31.3063 0.344033 -41.2751 -3.08778 4.15072 4.84217 14.7308 39.6154 -0.0 0.0 -0.0 12.3713 12.2631 -25.1104 -17.4693 41.3193 -68.2658 0.572841 15.8424 -0.0797052 -66.596 6.11259 -5.25874 -6.10557 -20.5816 29.2874 0.0 0.0 0.0 0.0774959 0.650896 6.51454 -24.4691 0.215884 3.72033 32.0664 25.7777 -4.36292 -25.9623 0.0 0.0 -0.0 0.0 -0.0 2.08838 26.037 0.769402 -50.2484 1.24387 -7.36799 38.704 -24.7152 5.03276 29.834 -0.0 -0.0 0.0 0.0 0.0 
2818.03284798 724.811 -1626.77416317 18.7753794619 63.7256899616 -23.5678348313 -2.80756 1.18078 6.80136 -2.78216 0.746649 6.86231 -2.65939 -1.03319 6.82523 -2.72432 0.0550262 6.9024 -9.19302 16.1038 -12.0575 -9.04071 38.3884 -8.03093 -0.0 0.0 -0.0 -6.20469 7.44757 -10.3425 19.1291 -19.8371 55.5217 1.54576 -37.4395 0.523831 -41.3186 -3.09247 4.15374 4.65052 14.5311 37.9755 -0.0 0.0 -0.0 12.5085 14.6687 -25.3752 -18.3896 41.3007 -66.9299 0.554793 15.3673 -0.0748502 -66.792 6.13747 -5.26195 -6.24967 -20.5298 30.343 0.0 0.0 0.0 0.562591 0.44058 6.08573 -23.8061 0.231068 3.61972 31.994 24.579 -4.32328 -26.0502 0.0 0.0 -0.0 0.0 -0.0 6.20827 27.7424 -0.930455 -48.9399 1.13111 -7.20103 37.2868 -26.2269 4.93829 28.9152 -0.0 -0.0 0.0 0.0 0.0 
2809.50019319 732.269 -1600.7292488 17.9521904998 65.8832533876 -22.9758538799 -2.67278 1.05834 6.71208 -2.64796 0.63009 6.76548 -2.54254 -1.108 6.70409 -2.60519 -0.0378559 6.79452 -11.4554 16.6637 -11.1812 -11.8762 38.7155 -6.00376 -0.0 0.0 -0.0 -6.38992 8.17787 -10.4939 20.0777 -20.4122 54.7701 1.62201 -38.7788 0.570898 -42.8401 -3.25815 4.2571 4.34621 14.2203 35.4477 -0.0 0.0 -0.0 11.9858 12.7061 -24.2246 -18.2584 41.7149 -66.4196 0.560829 15.5264 -0.0764579 -66.3029 6.07538 -5.25378 -5.74647 -18.3685 28.5684 0.0 0.0 0.0 -0.905929 1.72417 6.8229 -19.2418 0.303889 2.92332 30.6472 25.3307 -4.19002 -28.7806 0.0 0.0 -0.0 0.0 -0.0 10.2115 25.189 -1.12662 -47.0793 0.977419 -6.95933 31.6164 -26.9099 4.3437 26.2814 -0.0 -0.0 0.0 0.0 0.0 
2799.41110541 732.617 -1575.87352325 22.4398411871 67.5708101523 -27.8313215363 -2.72063 1.08255 6.67978 -2.69607 0.656291 6.73479 -2.58773 -1.07994 6.6802 -2.64994 -0.0138824 6.76653 -11.6028 16.7468 -10.4838 -12.095 38.4173 -5.22343 -0.0 0.0 -0.0 -6.417 6.66667 -10.9438 21.0621 -20.6456 53.8721 1.50067 -36.6243 0.496679 -41.367 -3.0977 4.1571 4.76145 14.5531 38.8956 -0.0 0.0 -0.0 12.0664 12.7702 -24.4069 -19.3242 41.2962 -65.2367 0.53526 14.8505 -0.0697586 -66.4317 6.09172 -5.25598 -6.129 -20.5495 29.4779 0.0 0.0 0.0 -1.53196 0.900523 7.72059 -23.6103 0.235332 3.58997 32.6307 25.2827 -4.4125 -25.4119 0.0 0.0 -0.0 0.0 -0.0 10.9558 25.6041 -1.86281 -47.6121 1.02062 -7.02904 37.0715 -24.65 4.86725 28.6361 -0.0 -0.0 0.0 0.0 0.0 
2762.16229861 729.027 -1522.68789702 19.0740300216 70.6036322045 -26.4719595765 -1.95835 0.947196 6.59447 -1.93433 0.526601 6.6411 -1.84838 -1.09712 6.57129 -1.90858 -0.047936 6.66168 -14.0996 17.6609 -7.71812 -15.2868 38.3081 -1.15187 -0.0 0.0 -0.0 -6.30854 8.49891 -10.2586 22.961 -19.3492 52.5202 2.93658 -55.4833 1.54471 -43.6212 -3.34425 4.30844 4.59157 14.9906 37.614 -0.0 0.0 -0.0 11.1801 13.0576 -22.3956 -21.6441 40.7217 -65.0555 0.499817 13.9066 -0.0609569 -65.7108 6.0003 -5.24319 -6.34969 -21.1556 30.5089 0.0 0.0 0.0 -4.7154 8.21807 11.309 -23.8288 0.230568 3.62317 28.689 22.2394 -3.89564 -25.1405 0.0 0.0 -0.0 0.0 -0.0 20.2921 25.4071 -4.09874 -24.8298 -0.207133 -3.77499 23.467 -24.5564 3.3079 20.0615 -0.0 -0.0 0.0 0.0 0.0 
2762.73124376 729.027 -1521.08772115 19.2815748397 70.8125103461 -26.691851503 -1.95835 0.947196 6.59447 -1.93433 0.526601 6.6411 -1.84838 -1.09712 6.57129 -1.90858 -0.047936 6.66168 -14.0996 17.6609 -7.71812 -15.2868 38.3081 -1.15187 -0.0 0.0 -0.0 -6.30854 8.49891 -10.2586 22.961 -19.3492 52.5202 2.93658 -55.4833 1.54471 -43.6212 -3.34425 4.30844 4.59157 14.9906 37.614 -0.0 0.0 -0.0 11.1801 13.0576 -22.3956 -21.6441 40.7217 -65.0555 0.499817 13.9066 -0.0609569 -65.7108 6.0003 -5.24319 -6.34969 -21.1556 30.5089 0.0 0.0 0.0 -4.7154 8.21807 11.309 -23.8288 0.230568 3.62317 28.689 22.2394 -3.89564 -25.1405 0.0 0.0 -0.0 0.0 -0.0 20.2921 25.4071 -4.09874 -24.8298 -0.207133 -3.77499 23.467 -24.5564 3.3079 20.0615 -0.0 -0.0 0.0 0.0 0.0 
2763.78905406 729.027 -1518.16331699 19.6738058237 71.19429548 -27.1066721267 -1.95835 0.947196 6.59447 -1.93433 0.526601 6.6411 -1.84838 -1.09712 6.57129 -1.90858 -0.047936 6.66168 -14.0996 17.6609 -7.71812 -15.2868 38.3081 -1.15187 -0.0 0.0 -0.0 -6.30854 8.49891 -10.2586 22.961 -19.3492 52.5202 2.93658 -55.4833 1.54471 -43.6212 -3.34425 4.30844 4.59157 14.9906 37.614 -0.0 0.0 -0.0 11.1801 13.0576 -22.3956 -21.6441 40.7217 -65.0555 0.499817 13.9066 -0.0609569 -65.7108 6.0003 -5.24319 -6.34969 -21.1556 30.5089 0.0 0.0 0.0 -4.7154 8.21807 11.309 -23.8288 0.230568 3.62317 28.689 22.2394 -3.89564 -25.1405 0.0 0.0 -0.0 0.0 -0.0 20.2921 25.4071 -4.09874 -24.8298 -0.207133 -3.77499 23.467 -24.5564 3.3079 20.0615 -0.0 -0.0 0.0 0.0 0.0 
2749.10632544 728.953 -1515.46444416 16.1766089178 70.5887448004 -23.6506548343 -1.68589 0.971827 6.44913 -1.66295 0.56037 6.49762 -1.57703 -0.998547 6.44506 -1.63494 0.0296125 6.52157 -13.9033 17.5584 -8.24215 -15.0314 38.4361 -1.77447 -0.0 0.0 -0.0 -5.87485 8.88659 -9.36499 24.31 -17.1451 51.6737 3.3427 -58.8581 1.88611 -44.5383 -3.44623 4.36722 4.3158 14.6486 35.3224 -0.0 0.0 -0.0 11.121 13.4084 -22.2538 -22.9862 40.4548 -64.4943 0.48894 13.6154 -0.0583697 -65.3596 5.95582 -5.23653 -6.34546 -21.0965 30.5306 0.0 0.0 0.0 -5.81325 11.9892 12.2191 -23.2986 0.241905 3.54259 31.2263 21.3765 -4.16588 -24.8013 0.0 0.0 -0.0 0.0 -0.0 21.4009 25.3709 -4.02336 -21.3068 -0.277818 -3.23909 20.4672 -24.6218 2.92392 18.2928 -0.0 -0.0 0.0 0.0 0.0 
2749.22753346 728.953 -1515.12768272 16.2123455518 70.6320526456 -23.6885402134 -1.68589 0.971827 6.44913 -1.66295 0.56037 6.49762 -1.57703 -0.998547 6.44506 -1.63494 0.0296125 6.52157 -13.9033 17.5584 -8.24215 -15.0314 38.4361 -1.77447 -0.0 0.0 -0.0 -5.87485 8.88659 -9.36499 24.31 -17.1451 51.6737 3.3427 -58.8581 1.88611 -44.5383 -3.44623 4.36722 4.3158 14.6486 35.3224 -0.0 0.0 -0.0 11.121 13.4084 -22.2538 -22.9862 40.4548 -64.4943 0.48894 13.6154 -0.0583697 -65.3596 5.95582 -5.23653 -6.34546 -21.0965 30.5306 0.0 0.0 0.0 -5.81325 11.9892 12.2191 -23.2986 0.241905 3.54259 31.2263 21.3765 -4.16588 -24.8013 0.0 0.0 -0.0 0.0 -0.0 21.4009 25.3709 -4.02336 -21.3068 -0.277818 -3.23909 20.4672 -24.6218 2.92392 18.2928 -0.0 -0.0 0.0 0.0 0.0 
